<?xml version="1.0" encoding="utf-8"?>
<!-- Generator: Adobe Illustrator 15.0.0, SVG Export Plug-In . SVG Version: 6.00 Build 0)  -->
<!DOCTYPE svg PUBLIC "-//W3C//DTD SVG 1.1//EN" "http://www.w3.org/Graphics/SVG/1.1/DTD/svg11.dtd">
<svg version="1.1" id="Layer_1" xmlns="http://www.w3.org/2000/svg" xmlns:xlink="http://www.w3.org/1999/xlink" x="0px" y="0px"
	 width="116px" height="57px" viewBox="0 0 116 57" enable-background="new 0 0 116 57" xml:space="preserve">
<g enable-background="new    ">
	<path fill="#07BFED" stroke="#FFFFFF" stroke-width="0.23" stroke-miterlimit="10" d="M2.578,36.14
		c0-6.394,5.082-11.25,11.599-11.25c3.832,0,7.193,1.722,9.283,4.426l-3.422,2.746c-1.271-1.905-3.361-3.073-5.881-3.073
		c-4.037,0-7.152,3.032-7.152,7.151c0,4.099,3.115,7.152,7.152,7.152c2.521,0,4.611-1.188,5.881-3.095l3.422,2.746
		c-2.09,2.705-5.451,4.427-9.283,4.427C7.66,47.37,2.578,42.513,2.578,36.14z"/>
	<path fill="#07BFED" stroke="#07BFED" stroke-miterlimit="10" d="M30.256,18.467v23.96c0,1.679,0.545,2.393,1.678,2.393
		c0.671,0,1.259,0.545,1.259,1.259c0,0.713-0.588,1.259-1.259,1.259c-2.811,0-4.364-1.679-4.364-4.91v-23.96
		c0-0.713,0.629-1.343,1.343-1.343C29.668,17.124,30.256,17.754,30.256,18.467z"/>
	<path fill="#07BFED" stroke="#07BFED" stroke-miterlimit="10" d="M53.546,37.434c0,6.882-3.357,10.113-8.812,10.113
		c-5.413,0-8.812-3.231-8.812-10.113s3.399-10.07,8.812-10.07C50.189,27.363,53.546,30.552,53.546,37.434z M50.818,37.434
		c0-5.287-2.224-7.637-6.084-7.637c-3.861,0-6.084,2.35-6.084,7.637c0,5.371,2.224,7.679,6.084,7.679
		C48.594,45.112,50.818,42.805,50.818,37.434z"/>
	<path fill="#07BFED" stroke="#07BFED" stroke-miterlimit="10" d="M60.431,28.957v10.952c0,2.728,0.882,5.077,5.119,5.077
		c4.238,0,5.12-2.35,5.12-5.077V28.957c0-0.755,0.629-1.343,1.385-1.343c0.713,0,1.301,0.588,1.301,1.343v10.952
		c0,3.986-1.301,7.638-7.806,7.638c-6.462,0-7.805-3.651-7.805-7.638V28.957c0-0.755,0.588-1.343,1.343-1.343
		C59.802,27.614,60.431,28.202,60.431,28.957z"/>
	<path fill="#07BFED" stroke="#07BFED" stroke-miterlimit="10" d="M78.226,30.468c-0.713,0-1.259-0.545-1.259-1.259
		c0-0.713,0.546-1.259,1.259-1.259h1.427v-2.476c0-3.776,2.141-7.217,7.26-7.217c1.847,0,3.692,0.503,4.448,0.923
		c0.503,0.294,0.755,0.671,0.755,1.175c0,0.713-0.546,1.259-1.259,1.259c-0.252,0-0.546-0.126-0.881-0.252
		c-0.924-0.335-1.679-0.587-3.063-0.587c-3.273,0-4.574,1.972-4.574,4.7v2.476h9.483c0.756,0,1.343,0.588,1.343,1.343v16.701
		c0,0.755-0.587,1.343-1.343,1.343c-0.755,0-1.343-0.588-1.343-1.343V30.468h-8.141v15.526c0,0.755-0.587,1.343-1.343,1.343
		c-0.755,0-1.343-0.588-1.343-1.343V30.468H78.226z"/>
	<path fill="#07BFED" stroke="#07BFED" stroke-miterlimit="10" d="M104.119,46.204l-7.008-16.659
		c-0.042-0.126-0.125-0.294-0.125-0.588c0-0.755,0.587-1.343,1.342-1.343c0.756,0,1.092,0.462,1.26,0.882l5.916,14.477l5.917-14.477
		c0.168-0.42,0.503-0.882,1.259-0.882c0.755,0,1.343,0.588,1.343,1.343c0,0.294-0.084,0.462-0.126,0.588l-8.267,19.68
		c-1.721,4.112-3.86,6.211-7.847,6.211c-0.714,0-1.259-0.546-1.259-1.259c0-0.714,0.545-1.259,1.259-1.259
		C101.434,52.918,102.398,50.441,104.119,46.204z"/>
</g>
<path fill="none" stroke="#07BFED" stroke-width="2" stroke-miterlimit="10" d="M38.5,2.222c8.033,0.443,14.192,7.25,13.755,15.207"
	/>
<path opacity="0.74" fill="none" stroke="#07BFED" stroke-width="2" stroke-miterlimit="10" d="M38.19,6.597
	c5.483,0.302,9.685,4.949,9.387,10.378"/>
<path opacity="0.57" fill="none" stroke="#07BFED" stroke-width="2" stroke-miterlimit="10" d="M37.704,10.654
	c3.155,0.174,5.572,2.846,5.4,5.97"/>
<circle opacity="0.26" fill="#07BFED" cx="38.429" cy="15.543" r="1.906"/>
</svg>
